<svg xmlns="http://www.w3.org/2000/svg" width="512" height="512" viewBox="0 0 64 64"><rect x="2" y="2" width="60" height="60" rx="17" fill="url(#g)"></rect><path d="M16 12 H34 C45 12 52 20 52 32 C52 44 45 52 34 52 H16 Z M26 22 H34 C41 22 44 26 44 32 C44 38 41 42 34 42 H26 Z" fill="#fff" fill-rule="evenodd"></path><path d="M35 25.2 Q35.9 31.1 40.8 32 Q35.9 32.9 35 38.8 Q34.1 32.9 29.2 32 Q34.1 31.1 35 25.2 Z" fill="#fff"></path><defs><linearGradient id="g" x1="2" y1="2" x2="62" y2="62" gradientUnits="userSpaceOnUse"><stop stop-color="#4F46E5"></stop><stop offset="1" stop-color="#7C3AED"></stop></linearGradient></defs></svg>